# xmcd
#
# Track frame offsets:
#	150
#	18089
#	38860
#	56768
#	74741
#	95048
#	112499
#	131150
#	150789
#	172307
#	193113
#	213541
#	231335
#
# Disc length: 3307 seconds
# Revision: 0
# Processed by: cddbd v1.5.2PL0 Copyright (c) Steve Scherf et al.
# Submitted via: dBpowerAMP V12.0
#
DISCID=c90ce90d
DTITLE=Keni St. Lewis - Like Fine Wine [Fortress]
DYEAR=2007
DGENRE=R&B
TTITLE0=Heaven Must Be Missing An Angel
TTITLE1=Come Cross Town
TTITLE2=Native New Yorker
TTITLE3=Ladyfingers
TTITLE4=Our Day Will Come
TTITLE5=Sometimes
TTITLE6=Angels Are Listenin'
TTITLE7=Stop Overlooking Me
TTITLE8=Long Time No See
TTITLE9=Someone New
TTITLE10=Love On The Rocks
TTITLE11=Endless
TTITLE12=Fallin'
EXTD=
EXTT0=
EXTT1=
EXTT2=
EXTT3=
EXTT4=
EXTT5=
EXTT6=
EXTT7=
EXTT8=
EXTT9=
EXTT10=
EXTT11=
EXTT12=
PLAYORDER=
